<?xml version="1.0" encoding="utf-8"?>
<svg id="master-artboard" viewBox="0 0 355.04901123046875 114.4274673461914" xmlns="http://www.w3.org/2000/svg" width="355.04901123046875px" height="114.4274673461914px" version="1.1" style="shape-rendering:geometricPrecision; text-rendering:geometricPrecision; image-rendering:optimizeQuality; fill-rule:evenodd; clip-rule:evenodd" xmlns:xlink="http://www.w3.org/1999/xlink"><rect id="ee-background" x="0" y="0" width="355.04901123046875" height="114.4274673461914" style="fill: white; fill-opacity: 0; pointer-events: none;"/><g transform="matrix(1.2760417461395264, 0, 0, 1.2760417461395264, -475.80884170532227, -428.51535261552203)"><metadata id="metadata374561">
    
  </metadata><linearGradient spreadMethod="pad" y2="30%" x2="-10%" y1="120%" x1="30%" id="3d_gradient2-logo-15b25ed7-5d4c-42cc-b566-5209529f3647">
    <stop id="stop374536" stop-opacity="1" stop-color="#ffffff" offset="0%"/>
    <stop id="stop374538" stop-opacity="1" stop-color="#000000" offset="100%"/>
  </linearGradient><linearGradient gradientTransform="rotate(-30)" spreadMethod="pad" y2="30%" x2="-10%" y1="120%" x1="30%" id="3d_gradient3-logo-15b25ed7-5d4c-42cc-b566-5209529f3647">
    <stop id="stop374541" stop-opacity="1" stop-color="#ffffff" offset="0%"/>
    <stop id="stop374543" stop-opacity="1" stop-color="#cccccc" offset="50%"/>
    <stop id="stop374545" stop-opacity="1" stop-color="#000000" offset="100%"/>
  </linearGradient><g id="logo-group">
    <image id="container" x="272" y="144" width="480" height="480" style="display: none;" transform="translate(0 0)" xlink:href=""/>
    <g id="logo-center" transform="translate(5.684341886080802e-14 0)">
      <image id="icon_container" x="0" y="0" style="display: none;" xlink:href=""/>
      <g id="slogan" style="font-style:normal;font-weight:500;font-size:32px;line-height:1;font-family:Montserrat;font-variant-ligatures:none;text-align:center;text-anchor:middle" transform="translate(0 0)"/>
      <g id="title" style="font-style:normal;font-weight:normal;font-size:72px;line-height:1;font-family:Teko;font-variant-ligatures:none;text-align:center;text-anchor:middle" transform="translate(0 0)">
        <path id="path374564" style="font-style:normal;font-weight:normal;font-size:72px;line-height:1;font-family:Teko;font-variant-ligatures:none;text-align:center;text-anchor:middle" d="M 447.21181,-7.344 V -18.36 q 0,-1.296 -0.432,-1.656 -0.36,-0.432 -1.656,-0.432 h -5.328 q -6.552,0 -6.552,-6.408 v -11.88 q 0,-6.336 6.696,-6.336 h 7.056 q 6.696,0 6.696,6.336 v 6.624 h -6.552 v -5.616 q 0,-1.296 -0.432,-1.656 -0.432,-0.432 -1.728,-0.432 h -3.024 q -1.296,0 -1.728,0.432 -0.432,0.36 -0.432,1.656 v 10.008 q 0,1.296 0.432,1.728 0.432,0.36 1.728,0.36 h 5.256 q 6.624,0 6.624,6.336 v 12.96 q 0,6.336 -6.768,6.336 h -6.984 q -6.696,0 -6.696,-6.336 v -6.624 h 6.552 v 5.616 q 0,1.296 0.432,1.728 0.432,0.36 1.728,0.36 h 3.024 q 1.296,0 1.656,-0.36 0.432,-0.432 0.432,-1.728 z" stroke-width="0" stroke-linejoin="miter" stroke-miterlimit="2" fill="#c38f9c" stroke="#c38f9c" transform="translate(0 326.56311999999997) translate(381.05300375 19.80176) scale(1.67) translate(-433.24381 45.072)"/>
        <path id="path374566" style="font-style:normal;font-weight:normal;font-size:72px;line-height:1;font-family:Teko;font-variant-ligatures:none;text-align:center;text-anchor:middle" d="m 476.82744,0 -1.8,-10.44 h -9.504 L 463.86744,0 h -6.48 l 7.992,-45.072 h 9.432 L 483.37944,0 Z m -10.512,-15.696 h 7.848 l -4.104,-23.76 z" stroke-width="0" stroke-linejoin="miter" stroke-miterlimit="2" fill="#ba8b9d" stroke="#ba8b9d" transform="translate(0 326.56311999999997) translate(421.3728658500001 19.80176) scale(1.67) translate(-457.38744 45.072)"/>
        <path id="path374568" style="font-style:normal;font-weight:normal;font-size:72px;line-height:1;font-family:Teko;font-variant-ligatures:none;text-align:center;text-anchor:middle" d="m 504.53056,0 -1.8,-10.44 h -9.504 L 491.57056,0 h -6.48 l 7.992,-45.072 h 9.432 L 511.08256,0 Z m -10.512,-15.696 h 7.848 l -4.104,-23.76 z" stroke-width="0" stroke-linejoin="miter" stroke-miterlimit="2" fill="#b1879d" stroke="#b1879d" transform="translate(0 326.56311999999997) translate(467.63707624999995 19.80176) scale(1.67) translate(-485.09056 45.072)"/>
        <path id="path374570" style="font-style:normal;font-weight:normal;font-size:72px;line-height:1;font-family:Teko;font-variant-ligatures:none;text-align:center;text-anchor:middle" d="M 522.15369,-18.216 V 0 h -6.48 v -45.072 h 14.76 q 6.696,0 6.696,6.336 v 14.112 q 0,5.472 -4.824,6.264 l 7.128,18.36 h -6.984 l -6.768,-18.216 z m 0,-21.6 V -23.4 h 6.336 q 1.296,0 1.728,-0.36 0.432,-0.432 0.432,-1.728 v -12.24 q 0,-1.296 -0.432,-1.656 -0.432,-0.432 -1.728,-0.432 z" stroke-width="0" stroke-linejoin="miter" stroke-miterlimit="2" fill="#a7829e" stroke="#a7829e" transform="translate(0 326.56311999999997) translate(518.7109033499999 19.80176) scale(1.67) translate(-515.67369 45.072)"/>
        <path id="path374572" style="font-style:normal;font-weight:normal;font-size:72px;line-height:1;font-family:Teko;font-variant-ligatures:none;text-align:center;text-anchor:middle" d="m 550.77256,-5.256 h 13.032 V 0 h -19.584 v -45.072 h 19.08 v 5.256 h -12.528 v 13.896 h 10.368 v 5.256 h -10.368 z" stroke-width="0" stroke-linejoin="miter" stroke-miterlimit="2" fill="#9e7e9e" stroke="#9e7e9e" transform="translate(0 326.56311999999997) translate(566.3841762499999 19.80176) scale(1.67) translate(-544.22056 45.072)"/>
        <path id="path374574" style="font-style:normal;font-weight:normal;font-size:72px;line-height:1;font-family:Teko;font-variant-ligatures:none;text-align:center;text-anchor:middle" d="m 575.37856,-45.072 h 7.992 q 6.696,0 6.696,6.336 v 32.4 q 0,6.336 -6.696,6.336 h -7.992 q -6.768,0 -6.768,-6.336 v -32.4 q 0,-6.336 6.768,-6.336 z m 8.208,37.728 v -30.384 q 0,-1.296 -0.432,-1.656 -0.432,-0.432 -1.728,-0.432 h -4.176 q -1.296,0 -1.728,0.432 -0.36,0.36 -0.36,1.656 v 30.384 q 0,1.296 0.36,1.728 0.432,0.36 1.728,0.36 h 4.176 q 1.296,0 1.728,-0.36 0.432,-0.432 0.432,-1.728 z" stroke-width="0" stroke-linejoin="miter" stroke-miterlimit="2" fill="#957a9f" stroke="#957a9f" transform="translate(0 326.56311999999997) translate(607.1154762499999 19.80176) scale(1.67) translate(-568.61056 45.072)"/>
      </g>
      <image id="icon" x="0" y="0" style="display: none;" xlink:href=""/>
    </g>
  </g></g></svg>